<?xml version="1.0" encoding="utf-8"?>
<!-- Generator: Adobe Illustrator 24.0.1, SVG Export Plug-In . SVG Version: 6.00 Build 0)  -->
<svg version="1.1" id="Layer_1" xmlns="http://www.w3.org/2000/svg" xmlns:xlink="http://www.w3.org/1999/xlink" x="0px" y="0px"
	 viewBox="0 0 156.14 36.1" style="enable-background:new 0 0 156.14 36.1;" xml:space="preserve">
<style type="text/css">
	.st0{fill:none;stroke:#000000;stroke-width:5;stroke-miterlimit:10;}
</style>
<g>
	<path d="M18.86,36.1c-5.5,0-10.02-1.7-13.56-5.11C1.77,27.58,0,23.26,0,18.05C0,12.7,1.75,8.36,5.26,5.02
		C8.76,1.67,13.28,0,18.82,0c2.37,0,4.42,0.4,6.14,1.2l5.09,2.88c0.96,0,1.6-0.33,1.92-0.98c0.32-0.66,0.54-1.59,0.67-2.81h0.96
		v15.17h-0.82c-1.41-3.9-2.41-6.54-3-7.92c-0.59-1.38-1.58-2.7-2.95-3.98c-1.38-1.28-3.14-1.92-5.28-1.92
		c-2.78,0-4.85,1.57-6.19,4.7c-1.34,3.14-2.02,6.8-2.02,10.99c0,4.51,0.81,8.42,2.42,11.74c1.62,3.31,3.99,4.97,7.13,4.97
		c2.91,0,5.25-1.06,7.01-3.17c1.76-2.11,2.93-4.86,3.5-8.26l0.82,0.14c-0.45,3.84-1.9,7.02-4.37,9.55
		C27.39,34.83,23.73,36.1,18.86,36.1z"/>
	<path d="M35.95,35.52v-0.77l1.3-0.05c0.93-0.1,1.49-0.32,1.68-0.67c0.19-0.35,0.29-1.12,0.29-2.3l0.05-2.21V18.05l-0.05-1.97
		c-0.06-0.77-0.16-1.34-0.29-1.73c-0.13-0.38-0.7-0.62-1.73-0.72l-1.25-0.1v-0.77h12.48v4.03c0.22-0.58,0.69-1.44,1.41-2.59
		c0.72-1.15,2.4-1.73,5.02-1.73c1.54,0,2.84,0.54,3.91,1.61c1.07,1.07,1.61,2.34,1.61,3.82c0,1.47-0.5,2.7-1.51,3.67
		c-1.01,0.98-2.25,1.46-3.72,1.46c-1.22,0-2.26-0.42-3.14-1.27c-0.88-0.85-1.32-1.82-1.32-2.9c0-0.8,0.14-1.54,0.43-2.21
		c0.32-0.61,0.64-1.23,0.96-1.87c-0.16-0.22-0.32-0.34-0.48-0.34c-0.83,0-1.54,0.5-2.16,1.49c-0.61,0.99-0.92,1.92-0.92,2.78v11.09
		l0.05,2.4c0,0.9,0.11,1.5,0.33,1.82c0.22,0.32,0.77,0.53,1.66,0.62l1.42,0.1v0.77H35.95z"/>
	<path d="M85.3,28.32c-0.9,2.4-2.34,4.28-4.33,5.64C78.98,35.32,76.64,36,73.95,36c-3.78,0-6.89-1.05-9.33-3.14
		c-2.44-2.1-3.66-5-3.66-8.71c0-3.46,1.26-6.3,3.78-8.52c2.52-2.22,5.54-3.34,9.07-3.34c3.69,0,6.51,1.04,8.46,3.12
		s2.93,4.62,2.93,7.63H70.46c0,1.15,0.09,2.33,0.26,3.53c0.17,1.2,0.51,2.36,1,3.48c0.49,1.12,1.19,2.02,2.1,2.71
		c0.91,0.69,2.04,1.03,3.41,1.03c1.96,0,3.52-0.55,4.66-1.66c1.14-1.1,2.02-2.49,2.63-4.15L85.3,28.32z M76.8,22.08
		c-0.03-0.35-0.06-0.77-0.07-1.25s-0.02-1.09-0.02-1.82c0-1.95-0.24-3.43-0.71-4.44c-0.48-1.01-1.3-1.51-2.48-1.51
		c-1.02,0-1.72,0.49-2.12,1.46c-0.4,0.98-0.67,2.47-0.83,4.49l-0.1,3.07H76.8z"/>
	<path d="M130.94,35.52h-14.48v-0.77c1.11,0,1.77-0.18,1.97-0.53c0.21-0.35,0.31-1.18,0.31-2.5l0.05-2.21v-9.7l-0.05-1.97
		c0-1.38-0.17-2.37-0.5-2.98c-0.33-0.61-0.93-0.91-1.78-0.91c-0.57,0-1.18,0.26-1.83,0.79c-0.65,0.53-1.09,1.56-1.31,3.1v11.66
		l0.05,2.21c0,1.02,0.06,1.76,0.17,2.21c0.11,0.45,0.72,0.72,1.83,0.82v0.77h-13.64v-0.77c1.08,0,1.73-0.18,1.95-0.53
		c0.22-0.35,0.33-1.18,0.33-2.5l0.05-2.21v-9.7l-0.05-1.97c0-1.38-0.17-2.37-0.5-2.98c-0.33-0.61-0.93-0.91-1.78-0.91
		c-1.08,0-1.82,0.35-2.21,1.06c-0.4,0.7-0.71,1.42-0.93,2.16v12.34l0.05,2.21c0,1.02,0.06,1.76,0.17,2.21
		c0.11,0.45,0.72,0.72,1.83,0.82v0.77H86.26v-0.77l1.06-0.05c0.93-0.1,1.49-0.32,1.68-0.67c0.19-0.35,0.29-1.12,0.29-2.3l0.05-2.21
		V18.05l-0.05-1.97c-0.06-0.77-0.16-1.34-0.29-1.73s-0.7-0.62-1.73-0.72l-1.1-0.1v-0.77H98.4v3.6c0.29-0.9,0.86-1.8,1.7-2.71
		c0.85-0.91,2.57-1.37,5.16-1.37c1.79,0,3.35,0.38,4.68,1.13c1.33,0.75,2.31,1.88,2.95,3.38c0.16-0.58,0.58-1.47,1.27-2.69
		c0.69-1.22,2.63-1.82,5.83-1.82c2.18,0,4.06,0.61,5.66,1.82c1.6,1.22,2.4,2.78,2.4,4.7v10.7l0.05,2.21c0,1.22,0.09,1.98,0.26,2.3
		c0.17,0.32,0.74,0.54,1.7,0.67l0.86,0.05V35.52z"/>
	<path d="M156.14,28.32c-0.9,2.4-2.34,4.28-4.33,5.64c-1.99,1.36-4.33,2.04-7.02,2.04c-3.78,0-6.89-1.05-9.33-3.14
		c-2.44-2.1-3.66-5-3.66-8.71c0-3.46,1.26-6.3,3.78-8.52c2.52-2.22,5.54-3.34,9.07-3.34c3.69,0,6.51,1.04,8.46,3.12
		s2.93,4.62,2.93,7.63h-14.74c0,1.15,0.09,2.33,0.26,3.53c0.17,1.2,0.51,2.36,1,3.48c0.49,1.12,1.19,2.02,2.1,2.71
		c0.91,0.69,2.04,1.03,3.41,1.03c1.96,0,3.52-0.55,4.66-1.66c1.14-1.1,2.02-2.49,2.63-4.15L156.14,28.32z M147.65,22.08
		c-0.03-0.35-0.06-0.77-0.07-1.25s-0.02-1.09-0.02-1.82c0-1.95-0.24-3.43-0.71-4.44c-0.48-1.01-1.3-1.51-2.48-1.51
		c-1.02,0-1.72,0.49-2.12,1.46c-0.4,0.98-0.67,2.47-0.83,4.49l-0.1,3.07H147.65z"/>
</g>
<path class="st0" d="M71.9,2.75c1.79,1.79,3.57,3.57,5.36,5.36"/>
</svg>
